<?xml version="1.0" encoding="UTF-8"?>
<svg version="1.1" xmlns="http://www.w3.org/2000/svg" width="193" height="193">
<path d="M0 0 C19.81183361 17.3454686 32.79492258 40.22145836 35.1875 66.6875 C37.05390963 95.73667707 27.25148699 121.23258969 8.15234375 143.0078125 C-4.20734572 155.95122447 -21.41891988 165.60418223 -38.8125 169.6875 C-39.71355469 169.91050781 -40.61460938 170.13351563 -41.54296875 170.36328125 C-66.89490861 175.61960729 -93.65141059 170.09329964 -115.2734375 156.171875 C-121.0149308 152.26928303 -125.94725266 147.61584133 -130.8125 142.6875 C-131.62460938 141.87410156 -132.43671875 141.06070313 -133.2734375 140.22265625 C-151.17308616 121.37609785 -158.52998978 97.41495547 -158.28076172 71.94384766 C-157.51445111 45.66862155 -146.60802724 22.68367196 -127.97949219 4.31494141 C-93.46506791 -28.18630838 -36.53988617 -30.81271637 0 0 Z " fill="#FDFCFC" transform="translate(157.8125,21.3125)"/>
<path d="M0 0 C0.90492187 0.30808594 1.80984375 0.61617187 2.7421875 0.93359375 C4.51307353 1.57393143 6.26175285 2.27573035 8 3 C8 3.66 8 4.32 8 5 C8.94875 5.309375 9.8975 5.61875 10.875 5.9375 C14 7 14 7 16 8 C16 8.66 16 9.32 16 10 C16.58394531 10.27199219 17.16789062 10.54398438 17.76953125 10.82421875 C29.58114647 17.05065689 36.28715004 29.81337956 41.625 41.5 C41.98013672 42.26546143 42.33527344 43.03092285 42.70117188 43.81958008 C43.01892578 44.54943115 43.33667969 45.27928223 43.6640625 46.03125 C43.94717285 46.67642578 44.2302832 47.32160156 44.52197266 47.98632812 C45 50 45 50 44 55 C40.37 55 36.74 55 33 55 C33.18464366 59.34184202 33.18464366 59.34184202 35 63 C38.26668537 63.16401768 41.53083269 63.25488987 44.80078125 63.328125 C48 64 48 64 50.12109375 65.86328125 C52.82003454 70.36899738 54.78661996 75.07381753 56.75 79.9375 C57.16121094 80.91396484 57.57242188 81.89042969 57.99609375 82.89648438 C58.38410156 83.84716797 58.77210938 84.79785156 59.171875 85.77734375 C59.5234668 86.63577881 59.87505859 87.49421387 60.23730469 88.37866211 C61 91 61 91 61 97 C56.05 97 51.1 97 46 97 C44.98964824 107.19750379 44.95476084 117.21941737 45.12695312 127.45703125 C45.13791016 128.65972656 45.14886719 129.86242187 45.16015625 131.1015625 C45.17699463 132.18775879 45.19383301 133.27395508 45.21118164 134.39306641 C45 137 45 137 43 139 C40.38623047 139.31884766 40.38623047 139.31884766 37.1171875 139.4140625 C35.95058594 139.45273438 34.78398437 139.49140625 33.58203125 139.53125 C31.74705078 139.57765625 31.74705078 139.57765625 29.875 139.625 C28.64394531 139.66367188 27.41289062 139.70234375 26.14453125 139.7421875 C23.09660789 139.83669675 20.04832411 139.91944623 17 140 C16.67 148.25 16.34 156.5 16 165 C7 165 7 165 3 163 C-2.64796826 157.01979832 -3.31417684 150.9476738 -3.3359375 143.09375 C-3.3459227 141.82936096 -3.3459227 141.82936096 -3.35610962 140.53942871 C-3.36619533 138.76442637 -3.37092791 136.98938643 -3.37060547 135.21435547 C-3.3749868 132.50815272 -3.41137034 129.80357186 -3.44921875 127.09765625 C-3.45508629 125.36719304 -3.4590561 123.63672214 -3.4609375 121.90625 C-3.47530853 121.10296265 -3.48967957 120.29967529 -3.50448608 119.4720459 C-3.44456712 112.06170778 -0.09265168 107.98433341 4.875 102.6875 C16.35302344 89.86788941 21.12586172 76.91387206 20.41796875 59.78515625 C19.53904416 47.30048795 14.38158626 35.35589867 5.1796875 26.7265625 C-5.5513697 18.2263344 -15.5327158 13.42927983 -29.25 13.625 C-30.780802 13.64022705 -30.780802 13.64022705 -32.3425293 13.65576172 C-48.12982704 13.98075357 -59.12563366 18.70981058 -70.671875 29.51171875 C-79.740551 39.20424663 -83.57361231 49.65233566 -83.4375 62.75 C-83.43500244 63.71574951 -83.43250488 64.68149902 -83.42993164 65.67651367 C-83.30118744 72.50453387 -82.17194643 77.89779028 -79.8515625 84.31640625 C-78.52356156 88.50143673 -78.43039043 91.8844687 -80 96 C-85.10721248 104.36907083 -85.10721248 104.36907083 -90 106 C-98.48558142 86.94746813 -102.2684292 62.95511053 -96.375 42.5 C-95.64692667 40.64049564 -94.85762645 38.80342011 -94 37 C-93.36384766 35.58654297 -93.36384766 35.58654297 -92.71484375 34.14453125 C-89.21636958 27.07936753 -84.46623035 21.62020867 -79 16 C-78.4121875 15.3503125 -77.824375 14.700625 -77.21875 14.03125 C-58.276753 -6.34033168 -24.93932974 -8.54800123 0 0 Z " fill="#CD5038" transform="translate(118,18)"/>
<path d="M0 0 C0 0.66 0 1.32 0 2 C0.556875 2.226875 1.11375 2.45375 1.6875 2.6875 C10.05410503 7.43611366 15.53768873 16.93423724 18.62890625 25.8046875 C20.75392481 38.37584996 19.52692485 51.32194553 12.1875 61.875 C5.5861539 70.32136842 -3.44197004 77.34194796 -14 80 C-17.46278283 80.27858533 -20.90271843 80.27934322 -24.375 80.25 C-25.73625 80.26160156 -25.73625 80.26160156 -27.125 80.2734375 C-40.51683966 80.2348443 -40.51683966 80.2348443 -45.5 75.75 C-47.30711461 72.43695655 -47.3699318 70.73631121 -47 67 C-45.53125 64.359375 -45.53125 64.359375 -43.5 61.75 C-42.77554688 60.80640625 -42.05109375 59.8628125 -41.3046875 58.890625 C-40.54414062 57.93671875 -39.78359375 56.9828125 -39 56 C-38.26007813 55.06671875 -37.52015625 54.1334375 -36.7578125 53.171875 C-35.40138984 51.47262024 -34.0375972 49.77920294 -32.6640625 48.09375 C-30.87336202 45.90044478 -30.87336202 45.90044478 -29 43 C-36.08692564 44.82290836 -36.08692564 44.82290836 -42.4375 48.3125 C-47.60716819 50.76129019 -51.62771488 49.43779059 -57 48 C-57.12375 46.88625 -57.2475 45.7725 -57.375 44.625 C-57.6465813 40.96896323 -57.6465813 40.96896323 -60 39 C-62.32275177 38.59952556 -64.65739357 38.2602896 -67 38 C-67.92164602 26.01860179 -62.78176213 16.22348688 -55.48046875 7.1015625 C-41.85914234 -8.07743384 -17.23770869 -8.61885435 0 0 Z " fill="#23428F" transform="translate(110,45)"/>
<path d="M0 0 C-0.11509661 1.41750563 -0.24253658 2.83401169 -0.375 4.25 C-0.44460937 5.03890625 -0.51421875 5.8278125 -0.5859375 6.640625 C-1.02349309 9.13386629 -1.67244224 10.85084181 -3 13 C-3.825 13.556875 -4.65 14.11375 -5.5 14.6875 C-8.26398365 17.24418488 -8.33767516 17.79003715 -8.875 21.3125 C-9.79722212 26.72943575 -12.67238366 29.76151651 -17 33 C-18.485 33.495 -18.485 33.495 -20 34 C-20.01417969 33.34773438 -20.02835938 32.69546875 -20.04296875 32.0234375 C-20.39731441 25.53029274 -21.47880856 22.63711942 -26 18 C-26 17.34 -26 16.68 -26 16 C-29.63 16 -33.26 16 -37 16 C-37 15.34 -37 14.68 -37 14 C-36.34 14 -35.68 14 -35 14 C-35 13.34 -35 12.68 -35 12 C-30.45908002 6.95453336 -26.46168642 6.27061464 -19.8046875 5.65234375 C-16.42078445 4.86527995 -15.29795739 3.52626417 -13 1 C-8.67794686 -0.1525475 -4.45471247 -0.08909425 0 0 Z " fill="#B0C4E4" transform="translate(107,64)"/>
<path d="M0 0 C1.98 0 3.96 0 6 0 C6.5 2.5 6.5 2.5 6 6 C3.63969898 9.01202593 0.86535444 11.47600548 -2 14 C-2.85464844 14.81984375 -2.85464844 14.81984375 -3.7265625 15.65625 C-7.32816339 18.98080467 -7.32816339 18.98080467 -10.1875 19.0625 C-12.55759489 17.67313403 -13.68797217 16.41689336 -15 14 C-14.6875 11.75 -14.6875 11.75 -14 10 C-13.34 10 -12.68 10 -12 10 C-11.67 9.01 -11.34 8.02 -11 7 C-5.65116279 2 -5.65116279 2 -2 2 C-2 3.65 -2 5.3 -2 7 C-0.68 6.67 0.64 6.34 2 6 C1.34 4.02 0.68 2.04 0 0 Z " fill="#2B4791" transform="translate(98,67)"/>
<path d="M0 0 C0 1.65 0 3.3 0 5 C-0.99 5.495 -0.99 5.495 -2 6 C-1.42547254 9.93075644 -1.42547254 9.93075644 1 13 C4.29279709 12.68134222 5.86535088 11.45484649 8 9 C8.66 9.33 9.32 9.66 10 10 C9.74297526 14.3694206 9.39976667 16.51822991 6.5625 19.9375 C4 22 4 22 2 22 C1.5875 20.7625 1.175 19.525 0.75 18.25 C-0.57676444 14.65694414 -2.12352151 12.57891175 -5 10 C-5 9.34 -5 8.68 -5 8 C-8.63 8 -12.26 8 -16 8 C-16 7.34 -16 6.68 -16 6 C-15.34 6 -14.68 6 -14 6 C-14 5.34 -14 4.68 -14 4 C-9.19892659 -1.16115392 -6.8095166 -1.52627096 0 0 Z " fill="#93A5CF" transform="translate(86,72)"/>
<path d="M0 0 C-0.66 0 -1.32 0 -2 0 C-2 1.32 -2 2.64 -2 4 C-2.72445312 4.06316406 -3.44890625 4.12632813 -4.1953125 4.19140625 C-11.13558413 5.03653048 -11.13558413 5.03653048 -16.375 9.3125 C-17.25820247 10.53578618 -18.13368397 11.76469751 -19 13 C-20.64694485 14.68615782 -22.31126121 16.35570171 -24 18 C-24.721875 18.763125 -25.44375 19.52625 -26.1875 20.3125 C-28 22 -28 22 -30 22 C-30.33 22.99 -30.66 23.98 -31 25 C-31.99 25.33 -32.98 25.66 -34 26 C-32.50830237 20.80849971 -29.24623785 17.74852164 -25.5 14.0625 C-24.87432129 13.44149414 -24.24864258 12.82048828 -23.60400391 12.18066406 C-18.84338944 7.56984637 -13.98157452 3.91237711 -8 1 C-6.94425781 0.42378906 -6.94425781 0.42378906 -5.8671875 -0.1640625 C-3.51831635 -1.21564916 -2.37522855 -0.84829591 0 0 Z " fill="#CF6A59" transform="translate(64,20)"/>
<path d="M0 0 C0.33 0.99 0.66 1.98 1 3 C0.01 4.485 0.01 4.485 -1 6 C-1.30090285 7.91338561 -1.30090285 7.91338561 -1.25878906 10.0090332 C-1.26509338 10.81029129 -1.27139771 11.61154938 -1.27789307 12.43708801 C-1.2738446 13.29960678 -1.26979614 14.16212555 -1.265625 15.05078125 C-1.26753845 15.94234421 -1.2694519 16.83390717 -1.27142334 17.75248718 C-1.2727845 19.63960044 -1.26909288 21.52672308 -1.26074219 23.41381836 C-1.25007942 26.29106943 -1.26062023 29.16769074 -1.2734375 32.04492188 C-1.27211515 33.8802097 -1.26955121 35.71549714 -1.265625 37.55078125 C-1.26967346 38.40722733 -1.27372192 39.2636734 -1.27789307 40.14607239 C-1.24149044 44.82732811 -0.79719314 48.59669834 1 53 C-2.73711092 50.50859272 -2.95369388 49.30781453 -4 45 C-4.28877089 42.02911205 -4.32767105 39.077304 -4.3359375 36.09375 C-4.3425943 35.25082397 -4.3492511 34.40789795 -4.35610962 33.53942871 C-4.36619533 31.76442637 -4.37092791 29.98938643 -4.37060547 28.21435547 C-4.3749868 25.50815272 -4.41137034 22.80357186 -4.44921875 20.09765625 C-4.45508629 18.36719304 -4.4590561 16.63672214 -4.4609375 14.90625 C-4.47530853 14.10296265 -4.48967957 13.29967529 -4.50448608 12.4720459 C-4.4606611 7.05209377 -3.41346041 4.23110129 0 0 Z " fill="#C87664" transform="translate(119,125)"/>
<path d="M0 0 C2.41820101 2.41820101 3.3365904 4.67328027 4.6875 7.8125 C5.14511719 8.85019531 5.60273438 9.88789062 6.07421875 10.95703125 C7 14 7 14 6 19 C2.37 19 -1.26 19 -5 19 C-4.81535634 23.34184202 -4.81535634 23.34184202 -3 27 C0.29777168 27.2452888 3.59458409 27.38425077 6.8984375 27.5234375 C10.12649299 28.01943595 11.09218034 28.43336492 13 31 C12.67 31.66 12.34 32.32 12 33 C11.34 32.67 10.68 32.34 10 32 C10 31.34 10 30.68 10 30 C5.05 30 0.1 30 -5 30 C-6.82089479 26.35821043 -6.05121113 21.99446852 -6 18 C-2.37 17.67 1.26 17.34 5 17 C4.34 14.03 3.68 11.06 3 8 C2.34 8 1.68 8 1 8 C0.67 5.36 0.34 2.72 0 0 Z " fill="#CD7766" transform="translate(156,54)"/>
<path d="M0 0 C0.66 0.33 1.32 0.66 2 1 C1.74297526 5.3694206 1.39976667 7.51822991 -1.4375 10.9375 C-4 13 -4 13 -6 13 C-6.45375 11.7625 -6.9075 10.525 -7.375 9.25 C-8.4384007 6.40754505 -9.55192483 3.67336954 -11 1 C-10.4225 1.515625 -9.845 2.03125 -9.25 2.5625 C-7.15397682 4.21233121 -7.15397682 4.21233121 -4.9375 3.875 C-2.78012031 2.9006995 -1.54456124 1.77624543 0 0 Z " fill="#B2C5E8" transform="translate(94,81)"/>
<path d="M0 0 C0.33 0 0.66 0 1 0 C1.02187378 1.67171265 1.02187378 1.67171265 1.04418945 3.37719727 C1.1024208 7.5353916 1.17965114 11.69305841 1.26245117 15.85083008 C1.29558413 17.64599 1.32365187 19.44125117 1.34643555 21.23657227 C1.38019664 23.82612012 1.43252125 26.41474971 1.48828125 29.00390625 C1.49467117 29.79898087 1.5010611 30.59405548 1.50764465 31.41322327 C1.67869552 37.98299503 3.31649876 42.47474814 7 48 C5.35 47.67 3.7 47.34 2 47 C0.09366844 41.38324803 -0.26799538 36.47268825 -0.1953125 30.56640625 C-0.1924826 29.68846909 -0.18965271 28.81053192 -0.18673706 27.9059906 C-0.17561598 25.12468355 -0.15052672 22.34370836 -0.125 19.5625 C-0.11495975 17.66732239 -0.10583573 15.77213968 -0.09765625 13.87695312 C-0.07570315 9.25117583 -0.0412296 4.62564402 0 0 Z " fill="#FCF2ED" transform="translate(114,132)"/>
<path d="M0 0 C0.33 0 0.66 0 1 0 C1.02505615 0.63091553 1.0501123 1.26183105 1.07592773 1.91186523 C1.19154137 4.75396825 1.31442316 7.59571083 1.4375 10.4375 C1.47681641 11.43072266 1.51613281 12.42394531 1.55664062 13.44726562 C1.59853516 14.39150391 1.64042969 15.33574219 1.68359375 16.30859375 C1.72025146 17.18314209 1.75690918 18.05769043 1.79467773 18.95874023 C1.78181066 20.9927402 1.78181066 20.9927402 3 22 C3.23527773 24.34987262 3.41386417 26.70556039 3.5625 29.0625 C3.64628906 30.35285156 3.73007812 31.64320312 3.81640625 32.97265625 C3.87699219 33.97167969 3.93757813 34.97070312 4 36 C-0.87005112 28.69492332 -0.26517699 19.35031619 -0.125 10.875 C-0.11597656 9.823125 -0.10695313 8.77125 -0.09765625 7.6875 C-0.07435853 5.12475122 -0.04165112 2.56250488 0 0 Z " fill="#BD553E" transform="translate(20,72)"/>
<path d="M0 0 C1.2065625 0.0309375 1.2065625 0.0309375 2.4375 0.0625 C2.7675 2.0425 3.0975 4.0225 3.4375 6.0625 C1.1275 6.3925 -1.1825 6.7225 -3.5625 7.0625 C-3.60504356 5.06295254 -3.60330783 3.06208364 -3.5625 1.0625 C-2.5625 0.0625 -2.5625 0.0625 0 0 Z " fill="#304A8C" transform="translate(114.5625,70.9375)"/>
<path d="M0 0 C1.98 0 3.96 0 6 0 C6.3125 2.75 6.3125 2.75 6 6 C3.5 8.375 3.5 8.375 1 10 C-0.32 9.34 -1.64 8.68 -3 8 C-2.67 6.68 -2.34 5.36 -2 4 C-2 4.99 -2 5.98 -2 7 C-0.68 6.67 0.64 6.34 2 6 C1.34 4.02 0.68 2.04 0 0 Z " fill="#395394" transform="translate(98,67)"/>
<path d="M0 0 C0.33 0.66 0.66 1.32 1 2 C0.0625 4.125 0.0625 4.125 -1 6 C-1.66 6 -2.32 6 -3 6 C-3.0825 6.53625 -3.165 7.0725 -3.25 7.625 C-4.26376098 10.8352431 -6.07160549 13.26292392 -8 16 C-8.99 15.34 -9.98 14.68 -11 14 C-9.35504034 11.85349184 -7.70907674 9.70776711 -6.0625 7.5625 C-5.59392578 6.95083984 -5.12535156 6.33917969 -4.64257812 5.70898438 C-1.11328125 1.11328125 -1.11328125 1.11328125 0 0 Z " fill="#3D538E" transform="translate(79,91)"/>
<path d="M0 0 C0.33 0 0.66 0 1 0 C1.58875012 4.12125083 1.97683944 7.57412952 -0.453125 11.12109375 C-3.2183001 13.91531481 -5.23362895 15.74454298 -9 17 C-9 14.36 -9 11.72 -9 9 C-8.67 10.32 -8.34 11.64 -8 13 C-7.38125 12.505 -6.7625 12.01 -6.125 11.5 C-4 10 -4 10 -2 10 C-1.93941406 9.36191406 -1.87882812 8.72382812 -1.81640625 8.06640625 C-1.73261719 7.24011719 -1.64882812 6.41382812 -1.5625 5.5625 C-1.48128906 4.73878906 -1.40007812 3.91507812 -1.31640625 3.06640625 C-1 1 -1 1 0 0 Z " fill="#BACBEA" transform="translate(96,81)"/>
<path d="M0 0 C1.8871875 0.061875 1.8871875 0.061875 3.8125 0.125 C3.4825 1.445 3.1525 2.765 2.8125 4.125 C2.8125 3.135 2.8125 2.145 2.8125 1.125 C1.1625 1.455 -0.4875 1.785 -2.1875 2.125 C-1.5275 3.775 -0.8675 5.425 -0.1875 7.125 C-1.8375 7.455 -3.4875 7.785 -5.1875 8.125 C-5.1875 6.475 -5.1875 4.825 -5.1875 3.125 C-5.8475 2.795 -6.5075 2.465 -7.1875 2.125 C-4.09861478 0.06574319 -3.47814073 -0.1140374 0 0 Z " fill="#5C73A5" transform="translate(101.1875,65.875)"/>
<path d="M0 0 C-0.66 0 -1.32 0 -2 0 C-2 1.32 -2 2.64 -2 4 C-3.77021322 4.336611 -5.54119674 4.66917293 -7.3125 5 C-8.79169922 5.2784375 -8.79169922 5.2784375 -10.30078125 5.5625 C-13 6 -13 6 -16 6 C-14.75146327 5.20602761 -13.50109957 4.41492783 -12.25 3.625 C-11.20585938 2.96371094 -11.20585938 2.96371094 -10.140625 2.2890625 C-3.97934783 -1.42119565 -3.97934783 -1.42119565 0 0 Z " fill="#D57966" transform="translate(64,20)"/>
<path d="M0 0 C2.125 0.375 2.125 0.375 4 1 C3.52949219 1.50789063 3.05898438 2.01578125 2.57421875 2.5390625 C-1.01734405 6.50985864 -3.9022425 10.06409999 -6 15 C-6.33 15 -6.66 15 -7 15 C-7 12.69 -7 10.38 -7 8 C-6.01 8 -5.02 8 -4 8 C-4 7.34 -4 6.68 -4 6 C-3.34 6 -2.68 6 -2 6 C-2 4.68 -2 3.36 -2 2 C-1.34 1.34 -0.68 0.68 0 0 Z " fill="#CC6252" transform="translate(45,45)"/>
<path d="M0 0 C-0.65226562 0.38671875 -1.30453125 0.7734375 -1.9765625 1.171875 C-6.73295763 4.00606915 -11.43023462 6.87331843 -16 10 C-16.33 8.68 -16.66 7.36 -17 6 C-15.02 5.67 -13.04 5.34 -11 5 C-11 4.34 -11 3.68 -11 3 C-10.01 3 -9.02 3 -8 3 C-7.67 2.01 -7.34 1.02 -7 0 C-3.86650268 -1.04449911 -3.01031744 -0.93423645 0 0 Z " fill="#CC6050" transform="translate(65,35)"/>
<path d="M0 0 C-0.41360337 4.8253726 -2.4219649 6.86921929 -6 10 C-6.33 10 -6.66 10 -7 10 C-7.3125 7.25 -7.3125 7.25 -7 4 C-3 0 -3 0 0 0 Z " fill="#3C508C" transform="translate(96,84)"/>
<path d="M0 0 C0.99 0.33 1.98 0.66 3 1 C-0.465 3.97 -0.465 3.97 -4 7 C-4.33 6.01 -4.66 5.02 -5 4 C-6.98 4 -8.96 4 -11 4 C-10.67 3.34 -10.34 2.68 -10 2 C-7.96875 1.62109375 -7.96875 1.62109375 -5.5 1.4375 C-2.45018475 1.4207737 -2.45018475 1.4207737 0 0 Z " fill="#B5C2E2" transform="translate(91,68)"/>
<path d="M0 0 C0.66 0.33 1.32 0.66 2 1 C0.515 2.485 0.515 2.485 -1 4 C-0.67 4.66 -0.34 5.32 0 6 C-2.64 7.98 -5.28 9.96 -8 12 C-8.66 11.67 -9.32 11.34 -10 11 C-8.89718873 9.72799029 -7.79269231 8.45744147 -6.6875 7.1875 C-6.07261719 6.47980469 -5.45773438 5.77210937 -4.82421875 5.04296875 C-3.26665665 3.29863261 -1.67341125 1.63221959 0 0 Z " fill="#46609C" transform="translate(60,47)"/>
<path d="M0 0 C0.99 0.495 0.99 0.495 2 1 C4.54615009 1.23172827 7.07396225 1.41894529 9.625 1.5625 C10.33140625 1.60568359 11.0378125 1.64886719 11.765625 1.69335938 C13.51018537 1.79944751 15.25506697 1.90022889 17 2 C17 2.33 17 2.66 17 3 C12.05 3 7.1 3 2 3 C1.67 6.96 1.34 10.92 1 15 C0.67 15 0.34 15 0 15 C0 10.05 0 5.1 0 0 Z " fill="#CE8272" transform="translate(162,112)"/>
<path d="M0 0 C0.886875 0.103125 1.77375 0.20625 2.6875 0.3125 C1.125 2.8125 1.125 2.8125 -1.3125 5.3125 C-5.0625 5.625 -5.0625 5.625 -8.3125 5.3125 C-4.12788462 0.38942308 -4.12788462 0.38942308 0 0 Z " fill="#364F8E" transform="translate(82.3125,72.6875)"/>
<path d="M0 0 C-5.41538462 4.06153846 -5.41538462 4.06153846 -8.375 3.75 C-8.91125 3.5025 -9.4475 3.255 -10 3 C-10.33 3.99 -10.66 4.98 -11 6 C-11.99 5.34 -12.98 4.68 -14 4 C-12.42466914 3.13116294 -10.83935491 2.28040932 -9.25 1.4375 C-8.36828125 0.96183594 -7.4865625 0.48617187 -6.578125 -0.00390625 C-3.79298812 -1.07998186 -2.73019786 -1.06528748 0 0 Z " fill="#5A72AB" transform="translate(76,42)"/>
<path d="M0 0 C0.33 1.65 0.66 3.3 1 5 C-2.99500618 3.6302836 -5.80009492 1.74277578 -9 -1 C-5.23375329 -2.25541557 -3.62811066 -1.37061958 0 0 Z " fill="#D06857" transform="translate(117,35)"/>
<path d="M0 0 C0.33 0.99 0.66 1.98 1 3 C0.67 3.66 0.34 4.32 0 5 C-0.66 5 -1.32 5 -2 5 C-2.268125 5.94875 -2.53625 6.8975 -2.8125 7.875 C-4 11 -4 11 -7 13 C-7.66 12.34 -8.32 11.68 -9 11 C-8.51789063 10.45730469 -8.03578125 9.91460937 -7.5390625 9.35546875 C-6.90742187 8.64003906 -6.27578125 7.92460938 -5.625 7.1875 C-4.68527344 6.12595703 -4.68527344 6.12595703 -3.7265625 5.04296875 C-1.859401 2.91196181 -1.859401 2.91196181 0 0 Z " fill="#C66753" transform="translate(129,113)"/>
<path d="M0 0 C0.66 1.32 1.32 2.64 2 4 C2.9075 3.938125 3.815 3.87625 4.75 3.8125 C8.28982642 4.01672076 9.44931155 4.64551835 12 7 C7.8725485 7 4.084979 6.54466387 0 6 C0 4.02 0 2.04 0 0 Z " fill="#6073A1" transform="translate(53,87)"/>
<path d="M0 0 C0.91007812 0.10183594 1.82015625 0.20367187 2.7578125 0.30859375 C3.45648438 0.39238281 4.15515625 0.47617188 4.875 0.5625 C4.545 1.5525 4.215 2.5425 3.875 3.5625 C0.245 3.2325 -3.385 2.9025 -7.125 2.5625 C-7.125 1.9025 -7.125 1.2425 -7.125 0.5625 C-4.50184968 -0.74907516 -2.89466564 -0.33399988 0 0 Z " fill="#B5C7E1" transform="translate(77.125,77.4375)"/>
<path d="M0 0 C0.66 0.33 1.32 0.66 2 1 C-5.2 7 -5.2 7 -10 7 C-10 6.34 -10 5.68 -10 5 C-9.21625 4.71125 -8.4325 4.4225 -7.625 4.125 C-4.90328368 3.15087746 -4.90328368 3.15087746 -3 1 C-2.01 0.67 -1.02 0.34 0 0 Z " fill="#384C83" transform="translate(109,116)"/>
<path d="M0 0 C0.66 0.99 1.32 1.98 2 3 C0.7934375 3.7734375 0.7934375 3.7734375 -0.4375 4.5625 C-3.66447078 7.63205757 -3.74896257 9.64868459 -4 14 C-4.33 14 -4.66 14 -5 14 C-6.23316062 8.89119171 -6.23316062 8.89119171 -6 6 C-4.26777886 3.45230244 -2.42262684 1.97765456 0 0 Z " fill="#99ACD1" transform="translate(102,74)"/>
<path d="M0 0 C1.13732426 3.40401948 0.83989957 5.77456664 0.0625 9.25 C-0.13214844 10.14203125 -0.32679687 11.0340625 -0.52734375 11.953125 C-0.68332031 12.62859375 -0.83929687 13.3040625 -1 14 C-1.66 14 -2.32 14 -3 14 C-2.48594831 9.03083364 -1.76615118 4.70973649 0 0 Z " fill="#CD725F" transform="translate(23,58)"/>
<path d="M0 0 C0.33 0.66 0.66 1.32 1 2 C-0.4976696 4.49824035 -2.01558218 6.86004673 -4 9 C-6.8125 9.4375 -6.8125 9.4375 -9 9 C-8.67 7.68 -8.34 6.36 -8 5 C-8 5.99 -8 6.98 -8 8 C-4.80800833 5.58443874 -2.25283313 3.31996462 0 0 Z " fill="#F5DDD3" transform="translate(36,116)"/>
<path d="M0 0 C0.99 0.33 1.98 0.66 3 1 C2.75 2.875 2.75 2.875 2 5 C-0.0625 6.25 -0.0625 6.25 -2 7 C-2.6875 5.1875 -2.6875 5.1875 -3 3 C-1.5625 1.25 -1.5625 1.25 0 0 Z " fill="#2B4888" transform="translate(114,109)"/>
<path d="M0 0 C0.33 0.66 0.66 1.32 1 2 C-0.43775696 5.21783702 -2.04417512 8.06626269 -4 11 C-4.66 11 -5.32 11 -6 11 C-4.74194623 6.49197399 -3.09592835 3.5087188 0 0 Z " fill="#F8DFD7" transform="translate(45,49)"/>
<path d="M0 0 C1.41791408 0.45445964 2.83428046 0.91374944 4.25 1.375 C5.43335937 1.75785156 5.43335937 1.75785156 6.640625 2.1484375 C8.86627958 2.95173667 10.90931672 3.89711662 13 5 C8.28596212 4.52060632 4.33420699 4.03165952 0 2 C0 1.34 0 0.68 0 0 Z " fill="#D17462" transform="translate(113,17)"/>
<path d="M0 0 C2.97 0.495 2.97 0.495 6 1 C6 1.66 6 2.32 6 3 C6.99 3 7.98 3 9 3 C9 3.66 9 4.32 9 5 C3.46153846 4.50769231 3.46153846 4.50769231 1.125 1.9375 C0.75375 1.298125 0.3825 0.65875 0 0 Z " fill="#495B8E" transform="translate(64,119)"/>
<path d="M0 0 C0.66 0.33 1.32 0.66 2 1 C0.74194623 5.50802601 -0.90407165 8.4912812 -4 12 C-3.33501617 7.61110675 -1.81242323 4.0188515 0 0 Z " fill="#495C92" transform="translate(125,95)"/>
<path d="M0 0 C1.98 0.495 1.98 0.495 4 1 C3.67 2.32 3.34 3.64 3 5 C1.68 5 0.36 5 -1 5 C-0.67 3.35 -0.34 1.7 0 0 Z " fill="#CCDBF1" transform="translate(64,57)"/>
<path d="M0 0 C0.99 0.33 1.98 0.66 3 1 C3.33 2.98 3.66 4.96 4 7 C3.01 7.33 2.02 7.66 1 8 C0.67 5.36 0.34 2.72 0 0 Z " fill="#F6E3D9" transform="translate(178,107)"/>
<path d="M0 0 C1.98 0.495 1.98 0.495 4 1 C3.67 2.32 3.34 3.64 3 5 C1.68 4.67 0.36 4.34 -1 4 C-0.67 2.68 -0.34 1.36 0 0 Z " fill="#BACBE8" transform="translate(113,73)"/>
<path d="M0 0 C5.27749285 0.53851968 9.25645564 1.77343836 14 4 C14 4.33 14 4.66 14 5 C8.72676192 5.68041782 4.60611289 3.24786337 0 1 C0 0.67 0 0.34 0 0 Z " fill="#EEBEB4" transform="translate(96,31)"/>
<path d="M0 0 C0.82638376 2.89234315 1 4.88742431 1 8 C0.01 7.67 -0.98 7.34 -2 7 C-2 5.02 -2 3.04 -2 1 C-1.34 0.67 -0.68 0.34 0 0 Z " fill="#354781" transform="translate(65,111)"/>
<path d="M0 0 C0.33 0.99 0.66 1.98 1 3 C1.66 3 2.32 3 3 3 C3.33 5.97 3.66 8.94 4 12 C1.21366885 7.82050327 0 5.06624674 0 0 Z " fill="#D18574" transform="translate(22,105)"/>
<path d="M0 0 C-0.33 0.99 -0.66 1.98 -1 3 C-4.63 3.33 -8.26 3.66 -12 4 C-7.59635087 0.69726315 -5.34893602 0 0 0 Z " fill="#ABB8D4" transform="translate(81,88)"/>
<path d="M0 0 C2.16483561 3.24725341 4.25338656 6.50677312 6 10 C4.35 9.67 2.7 9.34 1 9 C0.67 6.03 0.34 3.06 0 0 Z " fill="#F5D9CD" transform="translate(115,170)"/>
<path d="M0 0 C0.99 0.33 1.98 0.66 3 1 C0.6875 3.5 0.6875 3.5 -2 6 C-2.99 6 -3.98 6 -5 6 C-5 5.34 -5 4.68 -5 4 C-2.6875 1.8125 -2.6875 1.8125 0 0 Z " fill="#344B8B" transform="translate(93,93)"/>
<path d="M0 0 C1.98 0.66 3.96 1.32 6 2 C5.34 3.32 4.68 4.64 4 6 C3.34 6 2.68 6 2 6 C1.34 4.02 0.68 2.04 0 0 Z " fill="#C36956" transform="translate(26,118)"/>
<path d="M0 0 C0.66 0.33 1.32 0.66 2 1 C2 1.66 2 2.32 2 3 C0.25 4.6875 0.25 4.6875 -2 6 C-4.25 5.6875 -4.25 5.6875 -6 5 C-4.02 3.35 -2.04 1.7 0 0 Z " fill="#9CB0D7" transform="translate(94,81)"/>
<path d="M0 0 C2.475 0.495 2.475 0.495 5 1 C4.67 1.99 4.34 2.98 4 4 C2.68 4 1.36 4 0 4 C0 2.68 0 1.36 0 0 Z " fill="#D9E4F4" transform="translate(96,70)"/>
<path d="M0 0 C0.66 0.33 1.32 0.66 2 1 C0.35 2.98 -1.3 4.96 -3 7 C-3.99 6.67 -4.98 6.34 -6 6 C-4.02 4.02 -2.04 2.04 0 0 Z " fill="#F4D5CD" transform="translate(52,42)"/>
<path d="M0 0 C0.99 0 1.98 0 3 0 C3 0.66 3 1.32 3 2 C2.01 2.495 2.01 2.495 1 3 C0.34444881 5.52733235 0.34444881 5.52733235 0 8 C-0.66 7.34 -1.32 6.68 -2 6 C-1.44444444 1.44444444 -1.44444444 1.44444444 0 0 Z " fill="#9DACD5" transform="translate(83,75)"/>
</svg>
