<?xml version="1.0" encoding="UTF-8"?>
<svg id="Layer_1" xmlns="http://www.w3.org/2000/svg" version="1.1" viewBox="0 0 250 150">
  <!-- Generator: Adobe Illustrator 29.7.1, SVG Export Plug-In . SVG Version: 2.1.1 Build 8)  -->
  <defs>
    <style>
      .st0 {
        fill: #6f6f6e;
        font-family: Montserrat-SemiBold, Montserrat;
        font-size: 10.56px;
        font-weight: 600;
      }

      .st1 {
        font-size: 20.95px;
      }

      .st2 {
        fill: #fff;
      }

      .st3 {
        fill: none;
        stroke: #fff;
      }

      .st3, .st4 {
        stroke-miterlimit: 10;
      }

      .st5 {
        fill: #d33c29;
      }

      .st6 {
        fill: #233e86;
      }

      .st4 {
        font-size: 32.34px;
        letter-spacing: .02em;
        stroke: #233e86;
      }

      .st4, .st7 {
        fill: #1a408b;
        font-family: ConthraxSb-Regular, Conthrax;
      }

      .st8 {
        font-size: 19.7px;
      }
    </style>
  </defs>
  <g>
    <text class="st7" transform="translate(59.6 71.81)"><tspan class="st8" x="0" y="0">LAB OF</tspan><tspan class="st1" x="95.51" y="0"> </tspan></text>
    <text class="st4" transform="translate(58.02 98.61)"><tspan x="0" y="0">FUTURE</tspan></text>
  </g>
  <g>
    <path class="st5" d="M46.05,99.04l.11-5.54s0-.78,1.04-.76,4.43.02,4.43.02c0,0,1.85.39,1.69-1.23l-.36-3.9s.09-.6-.63-.98l-.48-.17s1.06-.2,1.11-.47.53-3.59.53-3.59l3.24-.03s.93.02.6-.73-1.98-4.52-1.98-4.52l-.75-1.81s-.37-.77-.99-.7-1.83.05-1.83.05c0,0-1.48,0-1.64-1.32l.02-1.13,2.27.03s.9.08.83-.81l-.21-.57-1.05-2.4s-1.47-3.22-3.03-4.78-4.8-5.21-11.89-5.64-10.52,2.12-12.7,3.63-4.8,4.87-5.65,7.99c0,0-1.45,4.24-.46,8.54.87,3.77,1.56,5.09,1.56,5.09l.65,1.56s1.68-1.76,1.99-2.37.76-1.59.04-2.96-.89-4.02-.91-4.35-.06-2.83.53-4.44c.54-1.45,1.98-4.28,4.22-6.11,0,0,2.76-2.67,7.53-2.67,0,0,5.48-.4,9.77,3.52,0,0,2.33,1.93,3.22,5.21s.64,5.89.16,7.52c-.37,1.24-1.58,3.8-3.27,5.66l-.93.99c-.06.06-.12.11-.19.16-.25.18-.91.82-.93,2.6l-.11,7.5s-.28,2.95,2.99,3.83c0,0,1.25.17,1.46.07Z"/>
    <g>
      <path class="st6" d="M23.86,74.79s0-6.34,5.3-9.18c4.65-2.49,11.27-2.07,14.6,4.06,3.34,6.13-1.06,11.52-1.06,11.52,0,0-3.42,4.14-8.64,3.87-3.74.01-4.71-1.26-4.71-1.26,0,0-1.12-.88-.21-2.31s4.33-5.54,4.33-5.54c0,0-1.83-.06-4.71,1.79,0,0-.79-1.4-2.36-.56,0,0,.45-1.14-.37-2.04-.36-.39-.86-.63-1.39-.62s-.79.27-.79.27Z"/>
      <g>
        <g>
          <path class="st3" d="M34.97,76.02l-1.89-2.21,3.4-2.93c.09-.07.18-.14.28-.18.37-.18,1.3-.53,2.52-.31,0,0,.25,1.14-.63,2.41-.09.13-.21.25-.33.36l-3.35,2.87Z"/>
          <path class="st3" d="M35.1,72.07s-1.14-.38-2.02-.05c-.83.32-2.34,1.81-2.34,1.81l2.34-.02"/>
          <path class="st3" d="M34.97,76.02l-.12,2.16s1.54-.94,2.09-2.09c.12-.24.15-.52.13-.79l-.05-.96"/>
          <circle class="st2" cx="37.41" cy="72.06" r=".45"/>
        </g>
        <path class="st2" d="M30.04,69.09c0,.36-.29.66-.66.66s-.66-.29-.66-.66.29-.66.66-.66.66.29.66.66Z"/>
        <circle class="st2" cx="41.46" cy="72.95" r=".63"/>
        <circle class="st2" cx="41.46" cy="78.73" r=".4"/>
        <circle class="st2" cx="34.71" cy="82.2" r=".4"/>
      </g>
    </g>
  </g>
  <text/>
  <text class="st0" transform="translate(176.93 111.7)"><tspan x="0" y="0">Be Curious</tspan></text>
</svg>